<svg xmlns="http://www.w3.org/2000/svg" xmlns:xlink="http://www.w3.org/1999/xlink" width="331" zoomAndPan="magnify" viewBox="0 0 248.25 248.249984" height="331" preserveAspectRatio="xMidYMid meet" version="1.0"><defs><clipPath id="d625bd0dd6"><path d="M 0 20 L 247.503906 20 L 247.503906 232 L 0 232 Z M 0 20 " clip-rule="nonzero"/></clipPath></defs><g clip-path="url(#d625bd0dd6)"><path fill="#ff3131" d="M 22.996094 145.140625 L 110.304688 226.648438 C 113.925781 230.027344 118.710938 231.914062 123.6875 231.914062 C 128.664062 231.914062 133.445312 230.027344 137.070312 226.648438 L 224.375 145.140625 C 239.0625 131.464844 247.375 112.285156 247.375 92.234375 L 247.375 89.429688 C 247.375 55.660156 222.972656 26.863281 189.683594 21.308594 C 167.652344 17.636719 145.234375 24.835938 129.484375 40.585938 L 123.6875 46.382812 L 117.890625 40.585938 C 102.136719 24.835938 79.71875 17.636719 57.6875 21.308594 C 24.398438 26.863281 0 55.660156 0 89.429688 L 0 92.234375 C 0 112.285156 8.308594 131.464844 22.996094 145.140625 Z M 22.996094 145.140625 " fill-opacity="1" fill-rule="nonzero"/><path fill="#ff3131" d="M 22.996094 145.140625 L 110.304688 226.648438 C 113.925781 230.027344 118.710938 231.914062 123.6875 231.914062 C 128.664062 231.914062 133.445312 230.027344 137.070312 226.648438 L 224.375 145.140625 C 239.0625 131.464844 247.375 112.285156 247.375 92.234375 L 247.375 89.429688 C 247.375 55.660156 222.972656 26.863281 189.683594 21.308594 C 167.652344 17.636719 145.234375 24.835938 129.484375 40.585938 L 123.6875 46.382812 L 117.890625 40.585938 C 102.136719 24.835938 79.71875 17.636719 57.6875 21.308594 C 24.398438 26.863281 0 55.660156 0 89.429688 L 0 92.234375 C 0 112.285156 8.308594 131.464844 22.996094 145.140625 Z M 22.996094 145.140625 " fill-opacity="1" fill-rule="nonzero"/></g></svg>